# xmcd
#
# Track frame offsets:
# 183
# 15695
# 56733
# 69558
# 75845
# 116133
# 138633
# 161670
# 195083
# 207595
# 230883
#
# Disc length: 3232 seconds
#
#
# Revision: 2
# Processed by: cddbd v1.5.2PL0 Copyright (c) Steve Scherf et al.
# Submitted via: FreeRIP 2.96 
#
DISCID=990c9e0b
DTITLE=Mozart - Beethoven - Weber - Wagner - Verdi - Opern-Chöre - Chor und Orchester der Deutschen Oper Berlin - Sinopoli - Mozart - Beethoven - Weber - Wagner - Verdi - Opern-Chöre - Chor und Orchester der Deutschen Oper Berlin - Sinopoli
DYEAR=1983
DGENRE=Klassik
TTITLE0=Mozart, Wolfgang Amadeus - Die Zauberflöte - O Isis und Osiris
TTITLE1=Beethoven, Ludwig van -  Fidelio - O welche lust
TTITLE2=Weber, Carl Maria von - Der Freischütz - Was gleicht wohl auf Erden
TTITLE3=Weber, Carl Maria von - Der Freischütz - Viktoria! Viktoria!
TTITLE4=Wagner, Richard - Tannhäuser - Freudig begrussen wir die edle Halle
TTITLE5=Verdi, Guiseppe -  Nabucco - Va, pensiero, sull'ali dorate
TTITLE6=Verdi, Guiseppe -  I Lombardi - O Signore, dal tetto natio
TTITLE7=Verdi, Guiseppe -  Macbeth - Patria oppressa
TTITLE8=Verdi, Guiseppe -  Il trovatore - Vedi, le fosche notturne spoglie
TTITLE9=Verdi, Guiseppe -  Aida - Gloria all'Egitto
TTITLE10=Verdi, Guiseppe -  Aida - Vieni, o guerriero vindice
EXTD=Deutsche Grammophone CD-Nr. 415 283-2\nChor und Orchester der Deutschen Oper Berlin\nDirigent: Guiseppe Sinopoli\nPolydor International
EXTT0=lebet 1756-1791
EXTT1=lebte 1770-1827
EXTT2=lebte 1786-1826
EXTT3=
EXTT4=lebte 1813-1883
EXTT5=lebte 1813-1901
EXTT6=lebte 1813-1901
EXTT7=lebte 1813-1901
EXTT8=lebte 1813-1901
EXTT9=lebte 1813-1901
EXTT10=lebte 1813-1901
PLAYORDER=
